<svg xmlns="http://www.w3.org/2000/svg" width="512" height="512" fill="none"><g clip-path="url(#a)"><circle cx="256" cy="256" r="248" fill="#18181B" stroke="#38BDF8" stroke-width="16"/><path fill="#38BDF8" d="M111.045 210.727v-35.636h141.591v35.636h-49V338h-43.591V210.727h-49ZM357.099 226c-.424-5.303-2.412-9.439-5.965-12.409-3.5-2.97-8.83-4.455-15.989-4.455-4.561 0-8.299.557-11.216 1.671-2.864 1.06-4.985 2.519-6.364 4.375-1.378 1.856-2.094 3.977-2.147 6.363-.106 1.963.238 3.739 1.034 5.33.848 1.538 2.174 2.943 3.977 4.216 1.803 1.22 4.11 2.333 6.92 3.341 2.811 1.007 6.152 1.909 10.023 2.704L350.736 240c9.015 1.909 16.731 4.428 23.148 7.557 6.416 3.129 11.666 6.814 15.75 11.057 4.083 4.189 7.079 8.909 8.988 14.159 1.962 5.25 2.97 10.977 3.023 17.182-.053 10.712-2.731 19.78-8.034 27.204-5.303 7.424-12.887 13.072-22.75 16.943-9.811 3.871-21.61 5.807-35.398 5.807-14.159 0-26.515-2.095-37.068-6.284-10.5-4.189-18.667-10.633-24.5-19.33-5.78-8.75-8.697-19.939-8.75-33.568h42c.265 4.985 1.511 9.175 3.739 12.568 2.227 3.394 5.356 5.966 9.386 7.716 4.083 1.75 8.935 2.625 14.557 2.625 4.719 0 8.67-.583 11.852-1.75 3.182-1.166 5.595-2.784 7.239-4.852 1.644-2.068 2.492-4.428 2.545-7.079-.053-2.493-.875-4.667-2.466-6.523-1.538-1.909-4.083-3.606-7.636-5.091-3.553-1.538-8.352-2.97-14.398-4.296l-16.227-3.5c-14.424-3.128-25.799-8.352-34.125-15.67-8.273-7.371-12.383-17.42-12.33-30.148-.053-10.341 2.705-19.382 8.273-27.125 5.621-7.795 13.39-13.867 23.307-18.216 9.969-4.348 21.398-6.522 34.284-6.522 13.151 0 24.526 2.2 34.125 6.602 9.598 4.401 16.996 10.606 22.193 18.614 5.25 7.954 7.902 17.261 7.955 27.92h-42.319Z"/></g><defs><clipPath id="a"><path fill="#fff" d="M0 0h512v512H0z"/></clipPath></defs></svg>