<svg width="512" height="512" viewBox="0 0 512 512" fill="none" xmlns="http://www.w3.org/2000/svg">
<g clip-path="url(#clip0_1_3)">
<circle cx="256" cy="256" r="256" fill="#3B82F6"/>
<path d="M89.9091 203.545V162.818H251.727V203.545H195.727V349H145.909V203.545H89.9091ZM371.114 221C370.629 214.939 368.356 210.212 364.295 206.818C360.295 203.424 354.205 201.727 346.023 201.727C340.811 201.727 336.538 202.364 333.205 203.636C329.932 204.848 327.508 206.515 325.932 208.636C324.356 210.758 323.538 213.182 323.477 215.909C323.356 218.152 323.75 220.182 324.659 222C325.629 223.758 327.144 225.364 329.205 226.818C331.265 228.212 333.902 229.485 337.114 230.636C340.326 231.788 344.144 232.818 348.568 233.727L363.841 237C374.144 239.182 382.962 242.061 390.295 245.636C397.629 249.212 403.629 253.424 408.295 258.273C412.962 263.061 416.386 268.455 418.568 274.455C420.811 280.455 421.962 287 422.023 294.091C421.962 306.333 418.902 316.697 412.841 325.182C406.78 333.667 398.114 340.121 386.841 344.545C375.629 348.97 362.144 351.182 346.386 351.182C330.205 351.182 316.083 348.788 304.023 344C292.023 339.212 282.689 331.848 276.023 321.909C269.417 311.909 266.083 299.121 266.023 283.545H314.023C314.326 289.242 315.75 294.03 318.295 297.909C320.841 301.788 324.417 304.727 329.023 306.727C333.689 308.727 339.235 309.727 345.659 309.727C351.053 309.727 355.568 309.061 359.205 307.727C362.841 306.394 365.598 304.545 367.477 302.182C369.356 299.818 370.326 297.121 370.386 294.091C370.326 291.242 369.386 288.758 367.568 286.636C365.811 284.455 362.902 282.515 358.841 280.818C354.78 279.061 349.295 277.424 342.386 275.909L323.841 271.909C307.356 268.333 294.356 262.364 284.841 254C275.386 245.576 270.689 234.091 270.75 219.545C270.689 207.727 273.841 197.394 280.205 188.545C286.629 179.636 295.508 172.697 306.841 167.727C318.235 162.758 331.295 160.273 346.023 160.273C361.053 160.273 374.053 162.788 385.023 167.818C395.992 172.848 404.447 179.939 410.386 189.091C416.386 198.182 419.417 208.818 419.477 221H371.114Z" fill="white"/>
</g>
<defs>
<clipPath id="clip0_1_3">
<rect width="512" height="512" fill="white"/>
</clipPath>
</defs>
</svg>
